<svg width="150" height="158" viewBox="0 0 150 158" fill="none" xmlns="http://www.w3.org/2000/svg">
<g clip-path="url(#clip0_5_9020)" filter="url(#filter0_d_5_9020)">
<path d="M64.4634 129.713H86.4537C87.8112 129.713 89.1131 130.252 90.073 131.212C91.0329 132.172 91.5722 133.474 91.5722 134.832V159.983H59.3449V134.829C59.3457 133.472 59.8853 132.17 60.8452 131.211C61.805 130.252 63.1064 129.713 64.4634 129.713Z" fill="#7CE6E6"/>
<path d="M65.6019 129.384H67.9587C68.0846 129.384 68.2055 129.434 68.2945 129.523C68.3836 129.612 68.4337 129.733 68.4337 129.859V159.657H65.1299V129.859C65.1299 129.734 65.1796 129.613 65.268 129.524C65.3564 129.435 65.4765 129.385 65.6019 129.384Z" fill="#154A87"/>
<path d="M83.0341 129.384H85.3909C85.5168 129.384 85.6377 129.434 85.7267 129.523C85.8158 129.612 85.8659 129.733 85.8659 129.859V159.657H82.5621V129.859C82.5621 129.734 82.6118 129.613 82.7002 129.524C82.7886 129.435 82.9086 129.385 83.0341 129.384Z" fill="#154A87"/>
<path d="M65.1453 140.172H59.3265V161.654H65.1453V140.172Z" fill="#C8803E"/>
<path d="M85.9084 161.651H91.575V140.169H85.9084V161.651Z" fill="#C8803E"/>
<path d="M68.434 119.141H82.5776V132.843C82.5784 133.772 82.3963 134.691 82.0417 135.549C81.6871 136.407 81.167 137.187 80.511 137.844C79.8551 138.502 79.0761 139.023 78.2186 139.379C77.3611 139.735 76.4419 139.919 75.5134 139.92C73.6382 139.92 71.8399 139.175 70.5139 137.849C69.188 136.523 68.4431 134.724 68.4431 132.849V119.147L68.434 119.141Z" fill="#C8803E"/>
<path d="M45.8658 102.306C48.2083 99.9631 48.2083 96.1651 45.8658 93.8225C43.5232 91.48 39.7252 91.48 37.3827 93.8225C35.0401 96.1651 35.0401 99.9631 37.3827 102.306C39.7252 104.648 43.5232 104.648 45.8658 102.306Z" fill="#C8803E"/>
<path d="M110.112 104.029C113.401 103.626 115.74 100.634 115.337 97.346C114.935 94.0577 111.943 91.7183 108.654 92.1209C105.366 92.5235 103.027 95.5156 103.429 98.8039C103.832 102.092 106.824 104.432 110.112 104.029Z" fill="#C8803E"/>
<path d="M33.5483 44.8424C42.932 44.8424 50.5389 37.2354 50.5389 27.8518C50.5389 18.4681 42.932 10.8612 33.5483 10.8612C24.1647 10.8612 16.5577 18.4681 16.5577 27.8518C16.5577 37.2354 24.1647 44.8424 33.5483 44.8424Z" fill="#6A3410"/>
<path d="M44.111 50.3537L40.6185 46.8642C39.0415 45.2777 38.1564 43.1316 38.1564 40.8947C38.1564 38.6577 39.0415 36.5117 40.6185 34.9251C42.2051 33.3473 44.3518 32.4615 46.5895 32.4615C48.8272 32.4615 50.9739 33.3473 52.5606 34.9251L56.05 38.4146C57.627 40.0011 58.5121 42.1472 58.5121 44.3841C58.5121 46.6211 57.627 48.7671 56.05 50.3537C54.4643 51.9321 52.3179 52.8183 50.0805 52.8183C47.8431 52.8183 45.6967 51.9321 44.111 50.3537Z" fill="#EF4151"/>
<path d="M117.905 44.8424C127.288 44.8424 134.895 37.2354 134.895 27.8518C134.895 18.4681 127.288 10.8612 117.905 10.8612C108.521 10.8612 100.914 18.4681 100.914 27.8518C100.914 37.2354 108.521 44.8424 117.905 44.8424Z" fill="#6A3410"/>
<path d="M107.341 50.3537L110.834 46.8642C112.411 45.2777 113.296 43.1316 113.296 40.8947C113.296 38.6577 112.411 36.5117 110.834 34.9251C109.247 33.3473 107.101 32.4615 104.863 32.4615C102.625 32.4615 100.478 33.3473 98.8918 34.9251L95.4023 38.4146C93.8239 40.0004 92.9377 42.1467 92.9377 44.3841C92.9377 46.6216 93.8239 48.7679 95.4023 50.3537C96.9881 51.9321 99.1344 52.8183 101.372 52.8183C103.609 52.8183 105.756 51.9321 107.341 50.3537Z" fill="#EF4151"/>
<path d="M104.882 96.5988C121.107 80.3746 121.107 54.07 104.882 37.8457C88.6582 21.6215 62.3536 21.6215 46.1294 37.8457C29.9051 54.07 29.9051 80.3746 46.1294 96.5988C62.3536 112.823 88.6582 112.823 104.882 96.5988Z" fill="#6A3410"/>
<path d="M108.794 76.1319C108.794 57.748 93.8908 42.845 75.5069 42.845C57.123 42.845 42.22 57.748 42.22 76.1319V92.7601C42.22 111.144 57.123 126.047 75.5069 126.047C93.8908 126.047 108.794 111.144 108.794 92.7601V76.1319Z" fill="#C8803E"/>
<path d="M111.51 76.8048C111.51 56.0537 94.2821 39.0692 73.5616 40.1776C64.3677 40.6862 55.717 44.6933 49.3836 51.3772C43.0503 58.061 39.5144 66.9148 39.5012 76.1227C55.3987 72.4201 67.9924 65.6513 75.5072 54.1689C82.6628 67.2498 95.0525 74.3506 111.51 76.8048Z" fill="#6A3410"/>
<path d="M55.24 93.8319C55.24 94.2491 54.6311 94.5871 53.8668 94.5871C53.1025 94.5871 52.4966 94.2491 52.4966 93.8319C52.4966 93.4148 53.1056 93.0798 53.8668 93.0798C54.628 93.0798 55.24 93.4178 55.24 93.8319Z" fill="#AC5B0F"/>
<path d="M59.5367 93.8319C59.5367 94.2491 58.9277 94.5871 58.1635 94.5871C57.3992 94.5871 56.7902 94.2491 56.7902 93.8319C56.7902 93.4148 57.3992 93.0798 58.1635 93.0798C58.9277 93.0798 59.5367 93.4178 59.5367 93.8319Z" fill="#AC5B0F"/>
<path d="M57.5481 95.8141C57.5481 96.2313 56.9391 96.5692 56.1748 96.5692C55.4106 96.5692 54.8077 96.2191 54.8077 95.8141C54.8077 95.4091 55.4167 95.059 56.1779 95.059C56.9391 95.059 57.5481 95.3969 57.5481 95.8141Z" fill="#AC5B0F"/>
<path d="M61.8874 95.8141C61.8874 96.2313 61.2785 96.5692 60.5142 96.5692C59.7499 96.5692 59.144 96.2313 59.144 95.8141C59.144 95.3969 59.753 95.059 60.5142 95.059C61.2754 95.059 61.8874 95.3969 61.8874 95.8141Z" fill="#AC5B0F"/>
<path d="M63.8302 93.8319C63.8302 94.2491 63.2212 94.5871 62.46 94.5871C61.6988 94.5871 61.0867 94.2491 61.0867 93.8319C61.0867 93.4148 61.6957 93.0798 62.46 93.0798C63.2243 93.0798 63.8302 93.4178 63.8302 93.8319Z" fill="#AC5B0F"/>
<path d="M90.5854 93.8319C90.5854 94.2491 89.9764 94.5871 89.2121 94.5871C88.4479 94.5871 87.8419 94.2491 87.8419 93.8319C87.8419 93.4148 88.4509 93.0798 89.2121 93.0798C89.9734 93.0798 90.5854 93.4178 90.5854 93.8319Z" fill="#AC5B0F"/>
<path d="M94.8819 93.8319C94.8819 94.2491 94.2729 94.5871 93.5086 94.5871C92.7444 94.5871 92.1384 94.2491 92.1384 93.8319C92.1384 93.4148 92.7474 93.0798 93.5086 93.0798C94.2699 93.0798 94.8819 93.4178 94.8819 93.8319Z" fill="#AC5B0F"/>
<path d="M92.8935 95.8141C92.8935 96.2313 92.2845 96.5692 91.5233 96.5692C90.762 96.5692 90.15 96.2313 90.15 95.8141C90.15 95.3969 90.759 95.059 91.5233 95.059C92.2875 95.059 92.8935 95.3969 92.8935 95.8141Z" fill="#AC5B0F"/>
<path d="M97.2328 95.8141C97.2328 96.2313 96.6238 96.5692 95.8595 96.5692C95.0953 96.5692 94.4893 96.2313 94.4893 95.8141C94.4893 95.3969 95.0983 95.059 95.8595 95.059C96.6208 95.059 97.2328 95.3969 97.2328 95.8141Z" fill="#AC5B0F"/>
<path d="M99.178 93.8319C99.178 94.2491 98.569 94.5871 97.8048 94.5871C97.0405 94.5871 96.4315 94.2491 96.4315 93.8319C96.4315 93.4148 97.0405 93.0798 97.8048 93.0798C98.569 93.0798 99.178 93.4178 99.178 93.8319Z" fill="#AC5B0F"/>
<path d="M81.9742 99.6739C82.5581 96.1006 80.1347 92.7307 76.5615 92.1468C72.9883 91.563 69.6183 93.9863 69.0345 97.5595C68.4506 101.133 70.874 104.503 74.4472 105.087C78.0204 105.67 81.3904 103.247 81.9742 99.6739Z" fill="#FFFEF9"/>
<path d="M64.1133 87.7239C63.7531 87.7239 63.4077 87.5808 63.1531 87.3261C62.8984 87.0714 62.7553 86.726 62.7553 86.3658C62.7311 85.6225 62.4187 84.9177 61.8843 84.4004C61.3499 83.8832 60.6353 83.594 59.8916 83.594C59.1478 83.594 58.4332 83.8832 57.8988 84.4004C57.3644 84.9177 57.0521 85.6225 57.0278 86.3658C57.0278 86.726 56.8847 87.0714 56.6301 87.3261C56.3754 87.5808 56.03 87.7239 55.6698 87.7239C55.3096 87.7239 54.9642 87.5808 54.7095 87.3261C54.4548 87.0714 54.3118 86.726 54.3118 86.3658C54.2944 85.6221 54.4259 84.8824 54.6985 84.1903C54.9711 83.4981 55.3793 82.8674 55.8992 82.3353C56.419 81.8031 57.04 81.3803 57.7256 81.0916C58.4112 80.8029 59.1476 80.6542 59.8916 80.6542C60.6355 80.6542 61.3719 80.8029 62.0575 81.0916C62.7431 81.3803 63.3641 81.8031 63.884 82.3353C64.4038 82.8674 64.812 83.4981 65.0846 84.1903C65.3572 84.8824 65.4887 85.6221 65.4714 86.3658C65.4714 86.726 65.3283 87.0714 65.0736 87.3261C64.8189 87.5808 64.4735 87.7239 64.1133 87.7239Z" fill="#262424"/>
<path d="M93.4935 87.7239C93.1333 87.7239 92.7879 87.5808 92.5332 87.3261C92.2786 87.0714 92.1355 86.726 92.1355 86.3658C92.1112 85.6225 91.7989 84.9177 91.2645 84.4004C90.7301 83.8832 90.0155 83.594 89.2717 83.594C88.528 83.594 87.8134 83.8832 87.279 84.4004C86.7446 84.9177 86.4323 85.6225 86.408 86.3658C86.408 86.726 86.2649 87.0714 86.0103 87.3261C85.7556 87.5808 85.4102 87.7239 85.05 87.7239C84.6898 87.7239 84.3444 87.5808 84.0897 87.3261C83.835 87.0714 83.692 86.726 83.692 86.3658C83.6746 85.6221 83.8061 84.8824 84.0787 84.1903C84.3513 83.4981 84.7595 82.8674 85.2793 82.3353C85.7992 81.8031 86.4202 81.3803 87.1058 81.0916C87.7914 80.8029 88.5278 80.6542 89.2717 80.6542C90.0157 80.6542 90.7521 80.8029 91.4377 81.0916C92.1233 81.3803 92.7443 81.8031 93.2642 82.3353C93.784 82.8674 94.1922 83.4981 94.4648 84.1903C94.7374 84.8824 94.8689 85.6221 94.8515 86.3658C94.8519 86.5443 94.8171 86.7211 94.749 86.886C94.6809 87.051 94.5809 87.2008 94.4547 87.327C94.3285 87.4532 94.1786 87.5532 94.0137 87.6213C93.8487 87.6894 93.672 87.7243 93.4935 87.7239Z" fill="#262424"/>
</g>
<defs>
<filter id="filter0_d_5_9020" x="-4" y="0" width="158" height="158" filterUnits="userSpaceOnUse" color-interpolation-filters="sRGB">
<feFlood flood-opacity="0" result="BackgroundImageFix"/>
<feColorMatrix in="SourceAlpha" type="matrix" values="0 0 0 0 0 0 0 0 0 0 0 0 0 0 0 0 0 0 127 0" result="hardAlpha"/>
<feOffset dy="4"/>
<feGaussianBlur stdDeviation="2"/>
<feComposite in2="hardAlpha" operator="out"/>
<feColorMatrix type="matrix" values="0 0 0 0 0 0 0 0 0 0 0 0 0 0 0 0 0 0 0.25 0"/>
<feBlend mode="normal" in2="BackgroundImageFix" result="effect1_dropShadow_5_9020"/>
<feBlend mode="normal" in="SourceGraphic" in2="effect1_dropShadow_5_9020" result="shape"/>
</filter>
<clipPath id="clip0_5_9020">
<rect width="150" height="150" fill="white"/>
</clipPath>
</defs>
</svg>
