<svg width="150" height="150" viewBox="0 0 150 150" fill="none" xmlns="http://www.w3.org/2000/svg">
<g clip-path="url(#clip0_5_3714)">
<path d="M118.658 52.4546L125.036 84.497C125.036 106.149 25.3394 106.149 25.3394 84.497L30.7939 52.5364C33.0424 39.4727 35.5727 33.1424 41.8787 26.1455C45.5586 22.0396 50.0619 18.7548 55.0956 16.505C60.1293 14.2553 65.5803 13.0909 71.0939 13.0879H79.2969C100.939 13.0879 114.591 28.9243 118.658 52.4546Z" fill="#FF9F00"/>
<path d="M118.165 52.5397L118.165 52.5397L118.167 52.5522L124.536 84.5454C124.518 87.0151 123.093 89.2355 120.454 91.2004C117.796 93.1795 113.966 94.8503 109.32 96.1957C100.033 98.8847 87.6217 100.236 75.1878 100.236C62.754 100.236 50.3424 98.8847 41.0561 96.1957C36.4099 94.8503 32.5798 93.1795 29.9218 91.2004C27.2806 89.2337 25.8553 87.011 25.8395 84.5386L31.2867 52.6212C33.5266 39.6073 36.0315 33.3803 42.2502 26.4802L42.2511 26.4792C45.884 22.4256 50.3301 19.1826 55.2996 16.9615C60.2691 14.7404 65.6507 13.5909 71.0939 13.5879C71.094 13.5879 71.0941 13.5879 71.0942 13.5879L79.2969 13.5879C89.9844 13.5879 98.6769 17.4932 105.208 24.2937C111.747 31.1035 116.143 40.8439 118.165 52.5397Z" stroke="black" stroke-opacity="0.4"/>
<path d="M103.77 208.618V174.827C103.77 159.782 91.4576 147.47 76.4121 147.47H73.9636C58.9151 147.47 46.603 159.782 46.603 174.827V208.618H103.77Z" fill="#FF9F00"/>
<path d="M103.27 174.827V208.118H47.103V174.827C47.103 160.058 59.1913 147.97 73.9636 147.97H76.4121C91.1814 147.97 103.27 160.058 103.27 174.827Z" stroke="black" stroke-opacity="0.4"/>
<path d="M95.318 151.818V132.585C95.302 127.249 93.1755 122.136 89.4027 118.363C85.63 114.59 80.5175 112.462 75.1816 112.445V112.445C69.8453 112.461 64.732 114.588 60.9586 118.362C57.1852 122.135 55.0582 127.248 55.0422 132.585V151.818H95.318Z" fill="#FF4D00"/>
<path d="M94.818 132.586V151.318H55.5422V132.586C55.558 127.382 57.6323 122.395 61.3121 118.715C64.9918 115.036 69.9779 112.961 75.1816 112.945C80.3848 112.962 85.3701 115.037 89.0491 118.716C92.7285 122.396 94.8024 127.383 94.818 132.586Z" stroke="black" stroke-opacity="0.4"/>
<path d="M75.1878 125.455C72.923 125.455 70.751 124.555 69.1496 122.953C67.5481 121.352 66.6484 119.18 66.6484 116.915V108.33C66.6492 106.066 67.5493 103.895 69.1506 102.294C70.752 100.693 72.9236 99.7939 75.1878 99.7939V99.7939C76.3088 99.7939 77.4189 100.015 78.4546 100.444C79.4902 100.873 80.4313 101.501 81.2239 102.294C82.0166 103.087 82.6454 104.028 83.0744 105.064C83.5034 106.099 83.7242 107.209 83.7242 108.33V116.903C83.7262 118.025 83.5068 119.137 83.0787 120.174C82.6506 121.212 82.0222 122.155 81.2293 122.949C80.4364 123.743 79.4947 124.373 78.458 124.803C77.4214 125.233 76.3101 125.455 75.1878 125.455V125.455Z" fill="#FFDACD"/>
<path d="M83.2242 116.903V116.904C83.2261 117.96 83.0196 119.007 82.6166 119.984C82.2135 120.96 81.6219 121.848 80.8754 122.596C80.129 123.343 79.2424 123.937 78.2665 124.341C77.2906 124.746 76.2444 124.955 75.1878 124.955C73.0556 124.955 71.0108 124.108 69.5031 122.6C67.9954 121.092 67.1484 119.047 67.1484 116.915L67.1484 108.33C67.1484 108.33 67.1484 108.33 67.1484 108.33C67.1492 106.199 67.9966 104.155 69.5041 102.648C71.0117 101.141 73.0561 100.294 75.1878 100.294C76.2432 100.294 77.2882 100.502 78.2632 100.906C79.2382 101.31 80.1241 101.901 80.8704 102.648C81.6166 103.394 82.2086 104.28 82.6125 105.255C83.0163 106.23 83.2242 107.275 83.2242 108.33V116.903Z" stroke="black" stroke-opacity="0.4"/>
<path d="M75.1877 19.3061H75.1847C52.9896 19.3061 34.9968 37.2988 34.9968 59.494V67.9455C34.9968 90.1406 52.9896 108.133 75.1847 108.133H75.1877C97.3829 108.133 115.376 90.1406 115.376 67.9455V59.494C115.376 37.2988 97.3829 19.3061 75.1877 19.3061Z" fill="#FFDACD"/>
<path d="M39.3967 79.4678C42.2239 76.6406 42.2239 72.0569 39.3967 69.2297C36.5696 66.4026 31.9859 66.4026 29.1587 69.2297C26.3315 72.0569 26.3315 76.6406 29.1587 79.4678C31.9859 82.2949 36.5696 82.2949 39.3967 79.4678Z" fill="#FFDACD"/>
<path d="M123.206 75.7133C123.962 71.7873 121.392 67.9917 117.466 67.2356C113.54 66.4796 109.744 69.0494 108.988 72.9755C108.232 76.9015 110.802 80.6972 114.728 81.4532C118.654 82.2092 122.45 79.6394 123.206 75.7133Z" fill="#FFDACD"/>
<path d="M49.9152 82.3001C49.9152 82.8031 49.1758 83.2091 48.2606 83.2091C47.3455 83.2091 46.603 82.8031 46.603 82.3001C46.603 81.797 47.3455 81.391 48.2606 81.391C49.1758 81.391 49.9152 81.797 49.9152 82.3001Z" fill="#FF9F00"/>
<path d="M49.4152 82.3001V82.3001C49.4152 82.3007 49.4152 82.3033 49.4129 82.3094C49.4103 82.3164 49.4039 82.3301 49.3889 82.3496C49.3574 82.3906 49.2957 82.4471 49.1903 82.505C48.9782 82.6215 48.6507 82.7091 48.2606 82.7091C47.8704 82.7091 47.542 82.6215 47.3289 82.5048C47.223 82.4467 47.1609 82.39 47.1293 82.349C47.1142 82.3294 47.1078 82.3158 47.1052 82.3089C47.103 82.3029 47.103 82.3005 47.103 82.3001C47.103 82.3001 47.103 82.3001 47.103 82.3001C47.103 82.3 47.103 82.3 47.103 82.3C47.103 82.2996 47.103 82.2972 47.1052 82.2912C47.1078 82.2843 47.1142 82.2707 47.1293 82.2511C47.1609 82.2101 47.223 82.1534 47.3289 82.0954C47.542 81.9786 47.8704 81.891 48.2606 81.891C48.6507 81.891 48.9782 81.9786 49.1903 82.0951C49.2957 82.153 49.3574 82.2095 49.3889 82.2505C49.4039 82.27 49.4103 82.2837 49.4129 82.2907C49.4152 82.2968 49.4152 82.2994 49.4152 82.3V82.3001Z" stroke="black" stroke-opacity="0.4"/>
<path d="M55.1029 82.3001C55.1029 82.8031 54.3605 83.2091 53.4453 83.2091C52.5302 83.2091 51.7908 82.8031 51.7908 82.3001C51.7908 81.797 52.5302 81.391 53.4453 81.391C54.3605 81.391 55.1029 81.797 55.1029 82.3001Z" fill="#FF9F00"/>
<path d="M54.6029 82.3001L54.6029 82.3001C54.6029 82.3005 54.6029 82.3029 54.6007 82.3089C54.5981 82.3158 54.5917 82.3294 54.5766 82.349C54.545 82.39 54.4829 82.4467 54.377 82.5048C54.1639 82.6215 53.8355 82.7091 53.4453 82.7091C53.0552 82.7091 52.7277 82.6215 52.5156 82.505C52.4102 82.4471 52.3485 82.3906 52.3171 82.3496C52.302 82.3301 52.2956 82.3164 52.293 82.3094C52.2908 82.3033 52.2908 82.3007 52.2908 82.3001L52.2908 82.3001L52.2908 82.3C52.2908 82.2994 52.2908 82.2968 52.293 82.2907C52.2956 82.2837 52.302 82.27 52.3171 82.2505C52.3485 82.2095 52.4102 82.153 52.5156 82.0951C52.7277 81.9786 53.0552 81.891 53.4453 81.891C53.8355 81.891 54.1639 81.9786 54.377 82.0954C54.4829 82.1534 54.545 82.2101 54.5766 82.2511C54.5917 82.2707 54.5981 82.2843 54.6007 82.2912C54.603 82.2975 54.6029 82.2998 54.6029 82.3001Z" stroke="black" stroke-opacity="0.4"/>
<path d="M52.7027 84.6909C52.7027 85.194 51.9603 85.6 51.0452 85.6C50.13 85.6 49.3906 85.194 49.3906 84.6909C49.3906 84.1879 50.133 83.7819 51.0452 83.7819C51.9573 83.7819 52.7027 84.1879 52.7027 84.6909Z" fill="#FF9F00"/>
<path d="M52.2027 84.6909L52.2027 84.691C52.2028 84.6914 52.2028 84.6938 52.2006 84.6998C52.198 84.7067 52.1916 84.7203 52.1765 84.7399C52.1448 84.7809 52.0828 84.8376 51.9769 84.8956C51.7638 85.0124 51.4353 85.1 51.0452 85.1C50.655 85.1 50.3275 85.0124 50.1155 84.8959C50.0101 84.838 49.9484 84.7815 49.9169 84.7405C49.9019 84.721 49.8955 84.7073 49.8929 84.7003C49.8906 84.6942 49.8906 84.6916 49.8906 84.691L49.8906 84.6909C49.8906 84.6909 49.8906 84.6909 49.8906 84.6909C49.8906 84.6905 49.8906 84.6881 49.8928 84.6821C49.8954 84.6752 49.9018 84.6615 49.9169 84.6419C49.9486 84.6008 50.0106 84.5441 50.1164 84.4861C50.3291 84.3694 50.6568 84.2819 51.0452 84.2819C51.4336 84.2819 51.7622 84.3694 51.976 84.4864C52.0822 84.5445 52.1446 84.6014 52.1765 84.6425C52.1917 84.6622 52.1981 84.6759 52.2006 84.6827C52.2019 84.6861 52.2024 84.6882 52.2026 84.6891L52.2027 84.6909Z" stroke="black" stroke-opacity="0.4"/>
<path d="M97.7757 82.3001C97.7757 82.8031 97.0333 83.2091 96.1212 83.2091C95.2091 83.2091 94.4636 82.8031 94.4636 82.3001C94.4636 81.797 95.206 81.391 96.1212 81.391C97.0363 81.391 97.7757 81.797 97.7757 82.3001Z" fill="#FF9F00"/>
<path d="M97.2757 82.3001L97.2757 82.3001C97.2757 82.3005 97.2758 82.3029 97.2735 82.3089C97.271 82.3158 97.2646 82.3295 97.2494 82.3491C97.2178 82.3902 97.1557 82.4469 97.05 82.5049C96.8373 82.6216 96.5096 82.7091 96.1212 82.7091C95.7328 82.7091 95.4041 82.6216 95.1904 82.5046C95.0842 82.4465 95.0217 82.3897 94.9899 82.3485C94.9747 82.3288 94.9683 82.3151 94.9657 82.3083C94.9645 82.3049 94.964 82.3028 94.9638 82.3019L94.9636 82.3001C94.9636 82.3 94.9636 82.3 94.9636 82.3C94.9636 82.2996 94.9636 82.2972 94.9658 82.2912C94.9684 82.2843 94.9748 82.2707 94.9899 82.2511C95.0215 82.2101 95.0836 82.1534 95.1895 82.0954C95.4026 81.9786 95.731 81.891 96.1212 81.891C96.5113 81.891 96.8388 81.9786 97.0509 82.0951C97.1563 82.153 97.218 82.2095 97.2495 82.2505C97.2645 82.27 97.2709 82.2837 97.2735 82.2907C97.2757 82.2968 97.2757 82.2994 97.2757 82.3V82.3001Z" stroke="black" stroke-opacity="0.4"/>
<path d="M100.606 84.6909C100.606 85.194 99.8636 85.6 98.9485 85.6C98.0333 85.6 97.2939 85.194 97.2939 84.6909C97.2939 84.1879 98.0333 83.7819 98.9485 83.7819C99.8636 83.7819 100.606 84.1879 100.606 84.6909Z" fill="#FF9F00"/>
<path d="M100.106 84.6909C100.106 84.6912 100.106 84.6935 100.104 84.6998C100.101 84.7067 100.095 84.7203 100.08 84.7399C100.048 84.7809 99.9861 84.8376 99.8802 84.8956C99.6671 85.0124 99.3386 85.1 98.9485 85.1C98.5583 85.1 98.2309 85.0124 98.0188 84.8959C97.9134 84.838 97.8517 84.7815 97.8202 84.7405C97.8052 84.721 97.7988 84.7073 97.7962 84.7003C97.7939 84.6942 97.7939 84.6916 97.7939 84.691L97.7939 84.6909L97.7939 84.6909C97.7939 84.6903 97.7939 84.6877 97.7962 84.6816C97.7988 84.6746 97.8052 84.6609 97.8202 84.6414C97.8517 84.6004 97.9134 84.5439 98.0188 84.486C98.2309 84.3695 98.5583 84.2819 98.9485 84.2819C99.3386 84.2819 99.6671 84.3695 99.8802 84.4863C99.9861 84.5443 100.048 84.601 100.08 84.642C100.095 84.6616 100.101 84.6752 100.104 84.6821C100.106 84.6881 100.106 84.6905 100.106 84.6909L100.106 84.6909Z" stroke="black" stroke-opacity="0.4"/>
<path d="M102.964 82.3001C102.964 82.8031 102.221 83.2091 101.306 83.2091C100.391 83.2091 99.6487 82.8031 99.6487 82.3001C99.6487 81.797 100.391 81.391 101.306 81.391C102.221 81.391 102.964 81.797 102.964 82.3001Z" fill="#FF9F00"/>
<path d="M102.464 82.3001L102.464 82.3001C102.464 82.3005 102.464 82.3029 102.462 82.3089C102.459 82.3158 102.453 82.3294 102.438 82.349C102.406 82.39 102.344 82.4467 102.238 82.5048C102.025 82.6215 101.696 82.7091 101.306 82.7091C100.916 82.7091 100.588 82.6215 100.375 82.5048C100.269 82.4467 100.207 82.39 100.175 82.349C100.16 82.3294 100.153 82.3158 100.151 82.3089C100.149 82.3029 100.149 82.3005 100.149 82.3001C100.149 82.3001 100.149 82.3001 100.149 82.3001C100.149 82.3 100.149 82.3 100.149 82.3C100.149 82.2996 100.149 82.2972 100.151 82.2912C100.153 82.2843 100.16 82.2707 100.175 82.2511C100.207 82.2101 100.269 82.1534 100.375 82.0954C100.588 81.9786 100.916 81.891 101.306 81.891C101.696 81.891 102.025 81.9786 102.238 82.0954C102.344 82.1534 102.406 82.2101 102.438 82.2511C102.453 82.2707 102.459 82.2843 102.462 82.2912C102.464 82.2975 102.464 82.2998 102.464 82.3001Z" stroke="black" stroke-opacity="0.4"/>
<path d="M65.748 75.3694C70.1326 70.9849 70.1326 63.8762 65.748 59.4917C61.3635 55.1071 54.2548 55.1071 49.8703 59.4917C45.4858 63.8762 45.4858 70.9849 49.8703 75.3694C54.2548 79.7539 61.3635 79.7539 65.748 75.3694Z" fill="#00C2FF" fill-opacity="0.31"/>
<path d="M65.3945 59.8452C69.5837 64.0345 69.5837 70.8266 65.3945 75.0159C61.2052 79.2051 54.4131 79.2051 50.2238 75.0159C46.0346 70.8266 46.0346 64.0345 50.2238 59.8452C54.4131 55.656 61.2052 55.656 65.3945 59.8452Z" stroke="black" stroke-opacity="0.4"/>
<path d="M57.8092 79.7637C55.3699 79.7637 52.9853 79.0404 50.9571 77.6852C48.9289 76.3299 47.3481 74.4037 46.4147 72.1501C45.4812 69.8965 45.2369 67.4167 45.7128 65.0242C46.1887 62.6318 47.3633 60.4342 49.0882 58.7094C50.813 56.9845 53.0106 55.8099 55.4031 55.334C57.7955 54.8581 60.2753 55.1024 62.5289 56.0358C64.7826 56.9693 66.7088 58.5501 68.064 60.5783C69.4192 62.6065 70.1425 64.9911 70.1425 67.4304C70.1393 70.7004 68.8389 73.8355 66.5266 76.1478C64.2144 78.4601 61.0792 79.7605 57.8092 79.7637V79.7637ZM57.8092 57.3122C55.8081 57.3128 53.8522 57.9067 52.1886 59.0189C50.5251 60.131 49.2287 61.7115 48.4633 63.5604C47.698 65.4093 47.4981 67.4436 47.8888 69.4062C48.2796 71.3687 49.2435 73.1713 50.6586 74.5861C52.0738 76.0008 53.8767 76.9642 55.8394 77.3543C57.802 77.7445 59.8363 77.544 61.685 76.7781C63.5336 76.0121 65.1137 74.7153 66.2254 73.0514C67.337 71.3875 67.9304 69.4314 67.9304 67.4304C67.9272 64.7473 66.8597 62.1751 64.9622 60.2782C63.0647 58.3813 60.4922 57.3146 57.8092 57.3122V57.3122Z" fill="#FF0000"/>
<path d="M68.4304 67.4304L68.4304 67.4298C68.427 64.6143 67.3069 61.9151 65.3157 59.9246C63.3246 57.934 60.6251 56.8147 57.8096 56.8122L57.8092 57.3122L57.809 56.8122C55.7091 56.8128 53.6565 57.4361 51.9107 58.6032C50.165 59.7703 48.8045 61.4289 48.0014 63.3692C47.1982 65.3094 46.9884 67.4443 47.3984 69.5038C47.8085 71.5633 48.82 73.455 50.3051 74.9397C51.7902 76.4243 53.6822 77.4353 55.7419 77.8447C57.8015 78.2542 59.9363 78.0437 61.8763 77.24C63.8164 76.4362 65.4745 75.0753 66.6411 73.3292C67.8077 71.5831 68.4304 69.5303 68.4304 67.4304ZM57.8087 79.2637C55.4684 79.2636 53.1808 78.5696 51.2349 77.2694C49.2889 75.9692 47.7722 74.121 46.8766 71.9588C45.981 69.7965 45.7466 67.4172 46.2032 65.1218C46.6598 62.8263 47.7868 60.7178 49.4417 59.0629C51.0967 57.408 53.2052 56.281 55.5006 55.8244C57.796 55.3678 60.1753 55.6021 62.3376 56.4978C64.4998 57.3934 66.348 58.9101 67.6482 60.8561C68.9484 62.802 69.6424 65.0896 69.6425 67.4299C69.6394 70.5674 68.3917 73.5756 66.1731 75.7942C63.9545 78.0129 60.9463 79.2606 57.8087 79.2637Z" stroke="black" stroke-opacity="0.4"/>
<path d="M100.756 75.3709C105.14 70.9864 105.14 63.8777 100.756 59.4932C96.3711 55.1087 89.2624 55.1087 84.8778 59.4932C80.4933 63.8777 80.4933 70.9864 84.8778 75.371C89.2624 79.7555 96.3711 79.7555 100.756 75.3709Z" fill="#00D1FF" fill-opacity="0.26"/>
<path d="M100.402 59.8467C104.591 64.036 104.591 70.8281 100.402 75.0174C96.2128 79.2067 89.4207 79.2067 85.2314 75.0174C81.0421 70.8281 81.0421 64.036 85.2314 59.8467C89.4207 55.6575 96.2128 55.6575 100.402 59.8467Z" stroke="black" stroke-opacity="0.4"/>
<path d="M92.8153 79.7637C90.376 79.7637 87.9914 79.0404 85.9632 77.6852C83.935 76.3299 82.3542 74.4037 81.4208 72.1501C80.4873 69.8965 80.243 67.4167 80.7189 65.0242C81.1948 62.6318 82.3694 60.4342 84.0943 58.7094C85.8191 56.9845 88.0167 55.8099 90.4091 55.334C92.8016 54.8581 95.2814 55.1024 97.535 56.0358C99.7886 56.9693 101.715 58.5501 103.07 60.5783C104.425 62.6065 105.149 64.9911 105.149 67.4304C105.145 70.7001 103.844 73.8348 101.532 76.1469C99.2197 78.459 96.085 79.7597 92.8153 79.7637V79.7637ZM92.8153 57.3122C90.8141 57.3122 88.8578 57.9056 87.1939 59.0174C85.53 60.1292 84.2331 61.7094 83.4673 63.5583C82.7015 65.4072 82.5011 67.4416 82.8915 69.4043C83.2819 71.3671 84.2456 73.1699 85.6606 74.585C87.0757 76 88.8786 76.9637 90.8413 77.3541C92.804 77.7445 94.8385 77.5442 96.6873 76.7783C98.5362 76.0125 100.116 74.7156 101.228 73.0517C102.34 71.3878 102.933 69.4315 102.933 67.4304C102.93 64.7478 101.863 62.1761 99.9664 60.2793C98.0695 58.3824 95.4978 57.3154 92.8153 57.3122V57.3122Z" fill="#FF3D00"/>
<path d="M103.433 67.4304V67.4298C103.43 64.6148 102.31 61.9162 100.32 59.9257C98.3295 57.9353 95.6308 56.8155 92.8159 56.8122L92.8153 57.3122V56.8122C90.7152 56.8122 88.6623 57.4349 86.9161 58.6017C85.17 59.7684 83.809 61.4267 83.0053 63.367C82.2017 65.3072 81.9914 67.4421 82.4011 69.5019C82.8108 71.5616 83.8221 73.4536 85.3071 74.9385C86.7921 76.4235 88.684 77.4348 90.7438 77.8445C92.8035 78.2542 94.9384 78.0439 96.8787 77.2403C98.8189 76.4366 100.477 75.0757 101.644 73.3295C102.811 71.5834 103.433 69.5304 103.433 67.4304ZM102.654 60.8561C103.954 62.8019 104.648 65.0895 104.649 67.4297C104.645 70.5671 103.397 73.5749 101.178 75.7934C98.9598 78.0118 95.952 79.2598 92.8147 79.2637C90.4745 79.2636 88.1868 78.5696 86.241 77.2694C84.295 75.9692 82.7783 74.121 81.8827 71.9588C80.9871 69.7965 80.7527 67.4172 81.2093 65.1218C81.6659 62.8263 82.7929 60.7178 84.4478 59.0629C86.1028 57.408 88.2113 56.281 90.5067 55.8244C92.8021 55.3678 95.1814 55.6021 97.3437 56.4978C99.5059 57.3934 101.354 58.9101 102.654 60.8561Z" stroke="black" stroke-opacity="0.4"/>
<path d="M81.5909 68.5395C81.4683 68.5383 81.3466 68.5178 81.2303 68.4788C77.1637 67.0849 73.297 67.0819 69.4122 68.4788C69.2753 68.5278 69.1301 68.5493 68.9849 68.5421C68.8397 68.535 68.6973 68.4993 68.5659 68.4371C68.4345 68.3749 68.3166 68.2874 68.219 68.1797C68.1214 68.072 68.046 67.946 67.997 67.8092C67.9481 67.6723 67.9266 67.5271 67.9337 67.3819C67.9409 67.2367 67.9766 67.0943 68.0388 66.9629C68.101 66.8315 68.1884 66.7136 68.2962 66.616C68.4039 66.5184 68.5298 66.4429 68.6667 66.394C72.9849 64.8516 77.4546 64.8516 81.9515 66.394C82.1993 66.4794 82.4087 66.6498 82.5428 66.8749C82.6769 67.1 82.727 67.3653 82.6841 67.6238C82.6413 67.8823 82.5083 68.1173 82.3088 68.2871C82.1092 68.4569 81.856 68.5506 81.594 68.5516L81.5909 68.5395Z" fill="#FF2E00"/>
<path d="M81.7055 68.0405C81.808 68.0207 81.9043 67.9748 81.9847 67.9063C82.0943 67.8131 82.1673 67.684 82.1909 67.5421C82.2144 67.4001 82.1869 67.2544 82.1132 67.1308C82.0397 67.0073 81.9248 66.9138 81.7889 66.8668C77.3951 65.3599 73.0422 65.3621 68.835 66.8648L81.7055 68.0405ZM81.7055 68.0405L81.5957 68.0395C81.526 68.0388 81.4568 68.0273 81.3906 68.0052C77.2225 66.5769 73.2395 66.5713 69.2434 68.0082C69.1685 68.0349 69.089 68.0467 69.0095 68.0427C68.9299 68.0388 68.8518 68.0192 68.7798 67.9851C68.7077 67.951 68.6431 67.9031 68.5895 67.844C68.536 67.7849 68.4947 67.7159 68.4678 67.6408C68.441 67.5657 68.4292 67.4861 68.4331 67.4065C68.437 67.3269 68.4566 67.2488 68.4907 67.1768C68.5248 67.1047 68.5728 67.0401 68.6319 66.9865C68.6909 66.9331 68.7599 66.8917 68.8349 66.8649L81.7055 68.0405Z" stroke="black" stroke-opacity="0.4"/>
<path d="M58.3544 69.9636C57.9089 69.962 57.482 69.7843 57.167 69.4693C56.8519 69.1542 56.6742 68.7274 56.6726 68.2818V65.7C56.6734 65.2542 56.8509 64.8269 57.1661 64.5117C57.4813 64.1964 57.9086 64.019 58.3544 64.0182V64.0182C58.8005 64.019 59.2281 64.1963 59.5438 64.5115C59.8595 64.8266 60.0377 65.2539 60.0393 65.7V68.2818C60.0377 68.7279 59.8595 69.1552 59.5438 69.4704C59.2281 69.7855 58.8005 69.9628 58.3544 69.9636V69.9636Z" fill="#FF9F00"/>
<path d="M57.5196 64.8652C57.7411 64.6438 58.0412 64.519 58.3544 64.5182C58.668 64.519 58.9686 64.6438 59.1906 64.8654C59.4126 65.0869 59.5379 65.3873 59.5393 65.701V68.2809C59.5379 68.5945 59.4126 68.8949 59.1906 69.1165C58.9687 69.338 58.6683 69.4627 58.3549 69.4636C58.0418 69.4622 57.7419 69.3371 57.5205 69.1157C57.299 68.8942 57.1739 68.5941 57.1726 68.2809V65.7005C57.1733 65.3871 57.2981 65.0868 57.5196 64.8652Z" stroke="black" stroke-opacity="0.4"/>
<path d="M92.8179 64.0182H92.8149C91.886 64.0182 91.1331 64.7712 91.1331 65.7V68.2849C91.1331 69.2137 91.886 69.9667 92.8149 69.9667H92.8179C93.7467 69.9667 94.4997 69.2137 94.4997 68.2849V65.7C94.4997 64.7712 93.7467 64.0182 92.8179 64.0182Z" fill="#FF9F00"/>
<path d="M92.8149 64.5182H92.8179C93.4706 64.5182 93.9997 65.0473 93.9997 65.7V68.2849C93.9997 68.9376 93.4706 69.4667 92.8179 69.4667H92.8149C92.1622 69.4667 91.6331 68.9376 91.6331 68.2849V65.7C91.6331 65.0473 92.1622 64.5182 92.8149 64.5182Z" stroke="black" stroke-opacity="0.4"/>
<path d="M118.657 52.4546V63.6364C84.603 61.1535 59.007 48.6566 41.8696 26.1455C45.5494 22.0396 50.0528 18.7548 55.0865 16.505C60.1201 14.2553 65.5712 13.0909 71.0848 13.0879H79.2878C100.939 13.0879 118.657 30.803 118.657 52.4546Z" fill="#FF9F00"/>
<path d="M118.158 52.4546V63.0977C84.6486 60.5441 59.4608 48.2211 42.5198 26.1725C46.1006 22.2618 50.4469 19.1263 55.2905 16.9615C60.26 14.7404 65.6415 13.5909 71.0848 13.5879C71.0849 13.5879 71.085 13.5879 71.0851 13.5879L79.2878 13.5879C100.663 13.5879 118.158 31.0792 118.158 52.4546Z" stroke="black" stroke-opacity="0.4"/>
<path d="M30.7849 52.5364C33.0334 39.4727 35.5637 33.1424 41.8698 26.1455C45.5496 22.0396 50.0529 18.7548 55.0866 16.505C60.1203 14.2553 65.5714 13.0909 71.0849 13.0879H79.288C100.939 13.0879 30.7849 52.5364 30.7849 52.5364Z" fill="#FF9F00"/>
<path d="M31.4602 51.5792C33.6559 39.2697 36.1908 33.1935 42.2412 26.4802L42.2421 26.4792C45.8751 22.4256 50.3211 19.1826 55.2906 16.9615C60.2601 14.7404 65.6417 13.5909 71.0849 13.5879C71.085 13.5879 71.0851 13.5879 71.0852 13.5879L79.288 13.5879C80.6156 13.5879 81.5309 13.7409 82.1147 13.9906C82.6774 14.2313 82.8795 14.533 82.9252 14.8535C82.9781 15.2243 82.8438 15.7572 82.4211 16.4746C82.0059 17.1793 81.3521 17.9954 80.482 18.9064C76.9931 22.5592 70.2981 27.4627 62.8789 32.3958C55.473 37.3201 47.3885 42.2462 41.1533 45.9424C38.0362 47.7903 35.3823 49.3301 33.5078 50.4079C32.6532 50.8993 31.9607 51.2946 31.4602 51.5792Z" stroke="black" stroke-opacity="0.4"/>
<path d="M76.4545 16.9697C76.4545 16.9697 69.2485 9.39396 79.1091 5.7182L76.4545 16.9697Z" fill="#FF9F00"/>
<path d="M76.1995 15.8732C76.1038 15.745 76.0015 15.6026 75.8963 15.4476C75.3924 14.706 74.835 13.7007 74.5701 12.6049C74.307 11.5167 74.337 10.3648 74.967 9.27765C75.518 8.3267 76.5607 7.36884 78.3997 6.54732L76.1995 15.8732Z" stroke="black" stroke-opacity="0.4"/>
<path d="M77.1484 15.7939C77.1484 15.7939 66.9393 18.0879 68.8514 7.74243L77.1484 15.7939Z" fill="#FF9F00"/>
<path d="M76.0758 15.4498C75.9164 15.4662 75.7415 15.4808 75.5543 15.4916C74.6584 15.5432 73.5086 15.5054 72.4314 15.1703C71.3616 14.8375 70.3879 14.2205 69.7783 13.1223C69.245 12.1616 68.9584 10.7755 69.1984 8.77593L76.0758 15.4498Z" stroke="black" stroke-opacity="0.4"/>
<path d="M61.0969 82.6364C61.1081 86.3701 62.5963 89.9477 65.2364 92.5879C67.8766 95.228 71.4541 96.7162 75.1878 96.7273V96.7273C78.9212 96.7162 82.4985 95.2279 85.1382 92.5877C87.7778 89.9474 89.2653 86.3699 89.2757 82.6364H61.0969Z" fill="#FF7A00"/>
<path d="M61.6076 83.1364H88.7651C88.6298 86.5554 87.2124 89.8058 84.7846 92.2342C82.2387 94.7806 78.7886 96.2162 75.1878 96.2273C71.5868 96.2162 68.1364 94.7807 65.59 92.2343C63.1617 89.806 61.7437 86.5556 61.6076 83.1364Z" stroke="black" stroke-opacity="0.4"/>
<path d="M63.2455 136.964H55.103V173.085H63.2455V136.964Z" fill="#FFDACD"/>
<path d="M55.603 137.464H62.7455V172.585H55.603V137.464Z" stroke="black" stroke-opacity="0.4"/>
<path d="M95.3241 136.964H87.1816V173.085H95.3241V136.964Z" fill="#FFDACD"/>
<path d="M87.6816 137.464H94.8241V172.585H87.6816V137.464Z" stroke="black" stroke-opacity="0.4"/>
</g>
<defs>
<clipPath id="clip0_5_3714">
<rect width="150" height="150" fill="white"/>
</clipPath>
</defs>
</svg>
